<?xml version="1.0" encoding="UTF-8"?>
<!DOCTYPE svg PUBLIC "-//W3C//DTD SVG 1.1//EN" "http://www.w3.org/Graphics/SVG/1.1/DTD/svg11.dtd">
<!-- Creator: CorelDRAW 2021 (64 Bit) -->
<svg xmlns="http://www.w3.org/2000/svg" xml:space="preserve" width="138.632mm" height="90.8514mm" version="1.1" style="shape-rendering:geometricPrecision; text-rendering:geometricPrecision; image-rendering:optimizeQuality; fill-rule:evenodd; clip-rule:evenodd"
viewBox="0 0 4089.22 2679.84"
 xmlns:xlink="http://www.w3.org/1999/xlink"
 xmlns:xodm="http://www.corel.com/coreldraw/odm/2003">
 <defs>
  <style type="text/css">
   <![CDATA[
    .fil1 {fill:#FEFEFE}
    .fil2 {fill:#96989A}
    .fil0 {fill:#FEFEFE;fill-rule:nonzero}
   ]]>
  </style>
   <mask id="id0">
  <linearGradient id="id1" gradientUnits="userSpaceOnUse" x1="1244.38" y1="1111.75" x2="500.89" y2="1346.95">
   <stop offset="0" style="stop-opacity:1; stop-color:white"/>
   <stop offset="1" style="stop-opacity:0; stop-color:white"/>
  </linearGradient>
    <rect style="fill:url(#id1)" x="-0.07" y="0.33" width="2436" height="2676.62"/>
   </mask>
 </defs>
 <g id="Camada_x0020_1">
  <metadata id="CorelCorpID_0Corel-Layer"/>
  <path class="fil0" d="M2107.87 2437.59c0.36,22.29 -5.45,41.34 -17.37,57.16 -7.85,10.73 -18.88,18.28 -33.2,22.71 -7.67,2.4 -16.59,3.6 -26.78,3.6 -18.93,0 -34.57,-4.68 -47.04,-14.08 -10.37,-7.67 -18.57,-18.09 -24.62,-31.28 -6.05,-13.24 -9.59,-28.34 -10.61,-45.42l45.9 -3.29c2.1,18.63 7.01,32.12 14.8,40.5 5.81,6.35 12.46,9.35 19.95,8.99 10.55,-0.36 18.93,-5.51 25.23,-15.58 3.24,-4.97 4.85,-11.98 4.85,-21.21 0,-13.3 -6.05,-26.48 -18.16,-39.6 -9.52,-8.99 -23.79,-22.53 -42.84,-40.62 -16,-15.46 -27.32,-29.36 -33.97,-41.64 -7.13,-13.78 -10.73,-28.76 -10.73,-44.94 0,-29.12 9.77,-51.17 29.36,-66.15 12.1,-9.05 27.08,-13.54 45,-13.54 17.19,0 31.93,3.83 44.16,11.5 9.53,5.93 17.26,14.26 23.13,24.99 5.87,10.66 9.41,23.01 10.6,36.97l-46.32 8.39c-1.38,-13 -5.15,-23.19 -11.26,-30.5 -4.44,-5.21 -10.85,-7.85 -19.23,-7.85 -8.87,0 -15.58,3.89 -20.19,11.74 -3.78,6.29 -5.63,14.14 -5.63,23.49 0,14.62 6.29,29.54 18.93,44.64 4.79,5.81 11.98,12.64 21.51,20.43 11.26,9.41 18.7,15.94 22.29,19.65 11.92,11.92 21.15,23.67 27.62,35.23 3.11,5.45 5.57,10.49 7.43,15.1 4.62,11.38 7.01,21.57 7.19,30.61zm84.54 -191.91l-51.41 0 0 -48.53 150.63 0 0 48.53 -51.05 0 0 271.42 -48.17 0 0 -271.42zm214.02 275.01c-21.27,0 -39.3,-7.43 -54.11,-22.23 -14.8,-14.8 -22.17,-32.77 -22.17,-53.86l0 -247.45 47.09 0 0 247.03c0,7.67 2.7,14.2 8.15,19.59 5.45,5.33 11.98,8.03 19.65,8.03 7.67,0 14.14,-2.7 19.53,-8.03 5.33,-5.39 8.03,-11.92 8.03,-19.59l0 -247.03 50.33 0 0 247.45c0,21.45 -7.49,39.48 -22.47,54.1 -14.92,14.68 -32.95,21.99 -54.04,21.99zm271.3 -80.23c0,21.09 -7.43,39.19 -22.23,54.17 -14.8,14.98 -32.65,22.47 -53.63,22.47l-75.85 0 0 -320.31 75.85 0c21.09,0 39.01,7.49 53.75,22.47 14.74,14.98 22.11,32.95 22.11,53.93l0 167.28zm-103.53 28.82l29.12 0c7.67,0 14.14,-2.76 19.41,-8.33 5.27,-5.51 7.91,-12.04 7.91,-19.53l0 -167.52c0,-7.67 -2.7,-14.26 -8.03,-19.71 -5.39,-5.45 -11.8,-8.15 -19.29,-8.15l-29.12 0 0 223.25zm194.01 47.81l-48.17 0 0 -319.95 48.17 0 0 319.95zm118.99 -323.91c21.27,0 39.3,7.49 54.16,22.47 14.92,14.98 22.35,33.02 22.35,54.11l0 174.71c0,21.27 -7.49,39.37 -22.47,54.22 -14.92,14.92 -32.95,22.35 -54.04,22.35 -21.27,0 -39.3,-7.49 -54.11,-22.47 -14.8,-14.98 -22.17,-33.02 -22.17,-54.11l0 -174.71c0,-21.27 7.49,-39.37 22.47,-54.22 14.92,-14.92 32.89,-22.35 53.81,-22.35zm26.18 75.73c0,-7.67 -2.7,-14.14 -8.03,-19.53 -5.39,-5.33 -11.86,-8.03 -19.53,-8.03 -7.67,0 -14.2,2.7 -19.65,8.03 -5.45,5.39 -8.15,11.86 -8.15,19.53l0 174.96c0,7.67 2.7,14.14 8.15,19.53 5.45,5.33 11.98,8.03 19.65,8.03 7.67,0 14.14,-2.7 19.53,-8.03 5.33,-5.39 8.03,-11.86 8.03,-19.53l0 -174.96zm268.6 171.54c0,21.09 -7.43,39.19 -22.23,54.17 -14.8,14.98 -32.66,22.47 -53.63,22.47l-75.85 0 0 -320.31 75.85 0c21.09,0 39,7.49 53.74,22.47 14.74,14.98 22.11,32.95 22.11,53.93l0 167.28zm-103.54 28.82l29.12 0c7.67,0 14.14,-2.76 19.41,-8.33 5.27,-5.51 7.91,-12.04 7.91,-19.53l0 -167.52c0,-7.67 -2.7,-14.26 -8.03,-19.71 -5.39,-5.45 -11.8,-8.15 -19.29,-8.15l-29.12 0 0 223.25zm194.01 47.81l-48.17 0 0 -319.95 48.17 0 0 319.95zm119.23 3.96c-21.27,0 -39.31,-7.49 -54.17,-22.47 -14.92,-14.98 -22.35,-32.95 -22.35,-53.87l0 -174.59c0,-21.27 7.49,-39.37 22.47,-54.22 14.92,-14.92 32.95,-22.35 54.04,-22.35 21.27,0 39.3,7.49 54.1,22.47 14.8,14.98 22.17,33.02 22.17,54.17l0 36.55 -49.97 0 0 -37.57c0,-7.61 -2.7,-14.2 -8.15,-19.65 -5.45,-5.45 -11.98,-8.15 -19.65,-8.15 -7.67,0 -14.14,2.7 -19.53,8.15 -5.33,5.45 -8.03,11.98 -8.03,19.65l0 175.07c0,7.67 2.7,14.14 8.03,19.53 5.39,5.33 11.86,8.03 19.53,8.03 7.67,0 14.2,-2.7 19.65,-8.03 5.45,-5.33 8.15,-11.8 8.15,-19.41l0 -62.79 -26.96 0 0 -48.53 76.93 0 0 111.74c0,21.27 -7.49,39.3 -22.47,54.1 -14.92,14.8 -32.89,22.17 -53.8,22.17zm166.5 -3.96l-48.17 0 0 -319.95 48.17 0 0 319.95zm90.29 -271.42l-51.41 0 0 -48.53 150.63 0 0 48.53 -51.05 0 0 271.42 -48.17 0 0 -271.42zm156.26 197.72l-11.8 73.7 -50.33 0 54.4 -319.95 66.39 0 53.63 319.95 -50.69 0 -11.26 -73.7 -50.33 0zm25.17 -172.92l-17.85 125.82 35.77 0 -17.91 -125.82zm259.2 246.61l-131.51 0 0 -319.95 48.17 0 0 271.78 83.34 0 0 48.17z"/>
  <path class="fil1" d="M2227.05 2050.68c2.23,26.11 15.26,57.19 43.25,57.18l320.96 -0.16c86.48,0 63.92,-117.21 63.44,-205.93l-0.06 -855.64 443.75 665.46 507.12 -681.3 0 1077.41 379.68 0.07c15.16,0 16.52,-31 16.52,-47.6l0 -1726.33 -396.21 -0.7c-12.49,0 -35.73,14.67 -56.05,45.82l-435.24 667.17 -409.84 -664.05c-12.21,-19.78 -26.46,-48.55 -44.74,-48.57l-369.51 -0.37c-36.88,0 -50.44,0.13 -122.26,0.01 5,5.16 71.7,70.97 76.59,76.18l0.23 0.25c445.38,469.47 396.27,1195.9 -17.65,1641.1z"/>
  <path class="fil1" d="M1449.47 671.91c-14.57,-5.74 -28.31,-11.37 -44.5,-16.95 -29.94,-10.32 -92.62,-19.61 -125.62,-23.31 -13.34,-0.04 -39.23,-5.64 -75.79,-5.84 -262.8,-1.48 -1037.05,-6.27 -1049.74,-0.35 -34.2,15.93 -142.7,359.31 -145.33,446.34 -0.96,31.61 -6.96,69.26 -8.03,109.22 -7.67,286.06 83.1,573.11 263.31,795.59 141.59,174.81 333.15,321.65 550.16,384.57 78.94,22.89 148.76,40.85 226.96,60.42 88.85,22.23 162.74,-9.88 243.47,44.36 36.63,24.61 323.42,216.1 335.43,210.82 -0.2,-2.65 -349.43,-551.06 -361.07,-557.7 -2.92,-1.66 -199.17,-17.31 -232.55,-25.62 -171.61,-42.74 -213.09,-68.03 -357.41,-165.73 1.03,0.64 -113.58,-82.31 -204.35,-222.31 -122.28,-188.61 -160.53,-375.41 -135.59,-602.64l6.68 -60.9 18.68 -73.48c3.73,-11.99 2.19,-26.16 13.77,-26.16l857.22 0c48.34,0 115.95,28.61 154.53,57.46l29.59 25.7c0.44,0.46 1.06,1.11 1.5,1.58 0.43,0.46 1.05,1.13 1.48,1.59 0.43,0.46 1.03,1.14 1.46,1.61 20.57,22.48 38.37,47.59 50.79,75.16l22.05 85.46c2.81,38.06 0.95,75.27 -11.3,112.06 -12.55,37.71 -33.04,69.25 -58.17,98.5 -0.63,0.73 -5.48,6.22 -5.77,6.52l-89.55 60.99 -48.87 15.65c-32.51,8.17 -164.66,1.85 -213.68,1.39 -57.86,-0.54 -29.8,11.55 -0.11,61.59 62.78,97.26 127.58,199.57 189.85,294.03 -0.78,-1.25 134.57,206.48 200.95,309.24 18.95,29.35 130.21,222.04 156.4,221.47 58.13,-1.26 302.82,-150.38 361.63,-197.44 158.95,-127.21 314.8,-323.01 383.85,-517.21 60.85,-171.14 64.85,-242.45 83.1,-423.31 6.57,-65.16 -22.49,-233.41 -36.27,-291.64 -60.07,-253.75 -166.9,-448.55 -365.74,-618.14 -132.65,-113.14 -182.22,-159.69 -346.66,-230.63 -400.86,-172.94 -913.63,-103.15 -1241.42,186.57 -14.55,12.86 -192.78,156.05 -188.26,202.82 64.88,1.51 422.56,13.47 457.65,-8.57 197.37,-124.02 403.28,-180.58 634.56,-146.27 279.75,41.51 551.26,230.4 667.17,494.11 75.55,171.87 86.41,199.26 99.4,387.07 5.61,81.16 -24.62,228.34 -53.58,308.77 -55.41,153.86 -192.37,350.9 -342.4,441.62 -14.76,8.92 -17.46,-11.49 -34.82,-35.06 -16.93,-22.99 -133.81,-211.34 -136.21,-209 -0.7,-18.06 53.03,-48.09 65.81,-59.37 112.49,-99.3 158.12,-206.43 186.79,-345.76 52.62,-255.76 -110.22,-537.95 -351.45,-638.9z"/>
  <path class="fil2" style="mask:url(#id0)" d="M1449.47 671.91c-14.57,-5.74 -28.31,-11.37 -44.5,-16.95 -29.94,-10.32 -91.65,-19.59 -124.66,-23.3 -14.67,-0.04 -45.69,-5.68 -88.07,-5.92 -272.98,-1.55 -1025.91,-6.12 -1038.43,-0.29 -34.2,15.93 -142.7,359.31 -145.33,446.34 -0.96,31.61 -6.96,69.26 -8.03,109.22 -7.67,286.06 83.1,573.11 263.31,795.59 141.59,174.81 333.15,321.65 550.16,384.57 78.94,22.89 148.76,40.85 226.96,60.42 88.85,22.23 162.74,-9.88 243.47,44.36 36.63,24.61 323.42,216.1 335.43,210.82 -0.2,-2.65 -349.43,-551.06 -361.07,-557.7 -2.92,-1.66 -199.17,-17.31 -232.55,-25.62 -171.61,-42.74 -213.09,-68.03 -357.41,-165.73 1.03,0.64 -113.58,-82.31 -204.35,-222.31 -122.28,-188.61 -160.53,-375.41 -135.59,-602.64l6.68 -60.9 18.68 -73.48c3.73,-11.99 2.19,-26.16 13.77,-26.16l857.22 0c48.34,0 115.95,28.61 154.53,57.46l29.59 25.7c0.44,0.46 1.06,1.11 1.5,1.58 0.43,0.46 1.05,1.13 1.48,1.59 0.43,0.46 1.03,1.14 1.46,1.61 20.57,22.48 38.37,47.59 50.79,75.16l22.05 85.46c2.81,38.06 0.95,75.27 -11.3,112.06 -12.55,37.71 -33.04,69.25 -58.17,98.5 -0.63,0.73 -5.48,6.22 -5.77,6.52l-89.55 60.99 -48.87 15.65c-32.51,8.17 -164.66,1.85 -213.68,1.39 -57.86,-0.54 -29.8,11.55 -0.11,61.59 62.78,97.26 127.58,199.57 189.85,294.03 -0.78,-1.25 134.57,206.48 200.95,309.24 18.95,29.35 130.21,222.04 156.4,221.47 58.13,-1.26 302.82,-150.38 361.63,-197.44 158.95,-127.21 314.8,-323.01 383.85,-517.21 60.85,-171.14 64.85,-242.45 83.1,-423.31 6.57,-65.16 -22.49,-233.41 -36.27,-291.64 -60.07,-253.75 -166.9,-448.55 -365.74,-618.14 -132.65,-113.14 -182.22,-159.69 -346.66,-230.63 -400.86,-172.94 -913.63,-103.15 -1241.42,186.57 -14.55,12.86 -192.78,156.05 -188.26,202.82 64.88,1.51 422.56,13.47 457.65,-8.57 197.37,-124.02 403.28,-180.58 634.56,-146.27 279.75,41.51 551.26,230.4 667.17,494.11 75.55,171.87 86.41,199.26 99.4,387.07 5.61,81.16 -24.62,228.34 -53.58,308.77 -55.41,153.86 -192.37,350.9 -342.4,441.62 -14.76,8.92 -17.46,-11.49 -34.82,-35.06 -16.93,-22.99 -133.81,-211.34 -136.21,-209 -0.7,-18.06 53.03,-48.09 65.81,-59.37 112.49,-99.3 158.12,-206.43 186.79,-345.76 52.62,-255.76 -110.22,-537.95 -351.45,-638.9z"/>
  <path class="fil1" d="M2109.22 1304.17c-22.29,243.31 -176.79,523.33 -389.72,655.63 -15.31,9.51 -15.62,-8.74 -34.9,-34.78 -20.95,-28.29 -136.59,-205.78 -136.53,-217.27 57.25,-21.61 163.67,-156.81 194.9,-218.86 196.93,-391.34 -71.48,-859.99 -523.98,-862.89 -114.32,-0.73 -228.92,-1.6 -343.22,-0.83 274.82,69.86 747.28,211.16 613.16,622.87 -117.65,361.14 -377.03,186.26 -461.92,242.37 -14.43,9.54 149.92,239.63 165.01,263 50.83,78.69 395.16,615.76 406.72,618.86 35.34,9.47 278.9,-132.36 325.33,-164.37 247.95,-170.97 418.9,-446.19 483.92,-738.62 12.15,-54.63 30.35,-232.39 23.3,-300.11 -15.16,-145.75 -24.05,-246.28 -79.72,-391.62 -98.86,-258.11 -244.49,-406.07 -466.36,-577.74 -50.18,-38.83 -194.2,-106.84 -271.02,-133.46 -394.94,-136.84 -851.21,-60.52 -1170.86,215.51 -0.81,0.7 -203.43,159.65 -176.86,192.23 9.97,12.23 408.17,23.34 444.78,2.44 171,-97.62 261.73,-141.9 456.98,-155.39 345.06,-23.84 707.84,182.69 847.57,501.08 69.72,158.85 93.94,218.08 99.72,394.87 0.73,22.25 -4.68,63.26 -6.3,87.1z"/>
  <path class="fil0" d="M1698.68 2678.82l-22.7 0 0 -66.97 23.16 0c6.65,0 12.37,1.33 17.14,4 4.79,2.67 8.47,6.51 11.05,11.49 2.56,5 3.85,10.97 3.85,17.93 0,6.97 -1.29,12.97 -3.87,17.98 -2.59,5.01 -6.31,8.85 -11.16,11.54 -4.85,2.68 -10.68,4.02 -17.48,4.02zm-10.56 -10.5l9.98 0c4.67,0 8.55,-0.86 11.66,-2.56 3.13,-1.72 5.46,-4.28 7.03,-7.69 1.58,-3.41 2.36,-7.67 2.36,-12.8 0,-5.13 -0.78,-9.38 -2.36,-12.77 -1.57,-3.39 -3.88,-5.92 -6.94,-7.62 -3.07,-1.69 -6.86,-2.53 -11.4,-2.53l-10.33 0 0 45.98zm54.57 10.5l0 -66.97 43.57 0 0 10.17 -31.43 0 0 18.18 29.16 0 0 10.16 -29.16 0 0 18.28 31.68 0 0 10.17 -43.81 0zm92.35 -48.55c-0.31,-2.86 -1.58,-5.08 -3.84,-6.68 -2.26,-1.58 -5.19,-2.38 -8.79,-2.38 -2.52,0 -4.7,0.38 -6.51,1.14 -1.8,0.77 -3.19,1.8 -4.14,3.11 -0.96,1.31 -1.46,2.79 -1.47,4.48 0,1.4 0.32,2.59 0.97,3.62 0.64,1.03 1.52,1.89 2.62,2.61 1.12,0.7 2.35,1.29 3.7,1.78 1.35,0.48 2.72,0.88 4.08,1.2l6.29 1.58c2.52,0.58 4.96,1.38 7.31,2.38 2.33,1.01 4.43,2.27 6.31,3.79 1.86,1.54 3.34,3.38 4.44,5.54 1.09,2.15 1.63,4.68 1.63,7.58 0,3.93 -1,7.37 -3.01,10.34 -2.01,2.98 -4.89,5.29 -8.68,6.97 -3.78,1.67 -8.35,2.5 -13.7,2.5 -5.22,0 -9.73,-0.8 -13.57,-2.42 -3.82,-1.61 -6.8,-3.96 -8.95,-7.06 -2.15,-3.1 -3.31,-6.86 -3.48,-11.31l11.93 0c0.18,2.33 0.91,4.27 2.16,5.82 1.26,1.55 2.92,2.7 4.96,3.47 2.04,0.77 4.31,1.15 6.84,1.15 2.64,0 4.96,-0.4 6.95,-1.2 1.99,-0.8 3.56,-1.9 4.7,-3.33 1.14,-1.43 1.7,-3.11 1.73,-5.04 -0.03,-1.73 -0.54,-3.18 -1.53,-4.33 -1.01,-1.14 -2.41,-2.1 -4.21,-2.87 -1.8,-0.78 -3.9,-1.47 -6.29,-2.09l-7.63 -1.96c-5.51,-1.41 -9.87,-3.56 -13.06,-6.45 -3.19,-2.9 -4.79,-6.74 -4.79,-11.53 0,-3.94 1.07,-7.41 3.22,-10.37 2.15,-2.96 5.06,-5.26 8.78,-6.91 3.7,-1.66 7.9,-2.47 12.58,-2.47 4.76,0 8.92,0.81 12.51,2.47 3.59,1.64 6.4,3.91 8.46,6.83 2.04,2.9 3.1,6.25 3.18,10.02l-11.68 0zm35.51 -18.41l0 66.97 -12.14 0 0 -66.97 12.14 0zm58.04 21.39c-0.55,-1.76 -1.29,-3.36 -2.24,-4.76 -0.95,-1.41 -2.09,-2.61 -3.41,-3.62 -1.32,-1 -2.82,-1.75 -4.53,-2.27 -1.7,-0.5 -3.54,-0.77 -5.55,-0.77 -3.61,0 -6.8,0.91 -9.62,2.72 -2.81,1.81 -5.02,4.47 -6.61,7.96 -1.6,3.5 -2.41,7.75 -2.41,12.77 0,5.05 0.8,9.34 2.39,12.85 1.6,3.51 3.81,6.18 6.63,7.99 2.84,1.83 6.14,2.73 9.88,2.73 3.39,0 6.35,-0.64 8.84,-1.96 2.5,-1.3 4.42,-3.16 5.77,-5.57 1.35,-2.41 2.03,-5.23 2.03,-8.49l2.75 0.43 -18.17 0 0 -9.48 27.16 0 0 8.04c0,5.74 -1.21,10.7 -3.65,14.89 -2.44,4.17 -5.8,7.4 -10.08,9.65 -4.27,2.26 -9.18,3.39 -14.7,3.39 -6.17,0 -11.59,-1.4 -16.24,-4.17 -4.66,-2.78 -8.29,-6.74 -10.9,-11.86 -2.61,-5.14 -3.9,-11.23 -3.9,-18.31 0,-5.4 0.77,-10.22 2.3,-14.47 1.54,-4.25 3.68,-7.87 6.46,-10.85 2.76,-2.98 6.01,-5.23 9.74,-6.8 3.71,-1.56 7.78,-2.33 12.16,-2.33 3.71,0 7.16,0.54 10.37,1.61 3.19,1.07 6.05,2.61 8.55,4.6 2.49,1.98 4.54,4.33 6.15,7.06 1.63,2.72 2.67,5.73 3.18,9.02l-12.35 0zm79.68 -21.39l0 66.97 -10.79 0 -31.55 -45.61 -0.55 0 0 45.61 -12.14 0 0 -66.97 10.87 0 31.52 45.65 0.58 0 0 -45.65 12.06 0zm52.29 54.68c-2.64,0 -5.05,-0.65 -7.23,-1.95 -2.18,-1.29 -3.91,-3.04 -5.2,-5.22 -1.31,-2.18 -1.95,-4.59 -1.95,-7.23 0,-2.65 0.64,-5.06 1.95,-7.24 1.29,-2.17 3.02,-3.9 5.2,-5.19 2.18,-1.3 4.59,-1.95 7.23,-1.95 2.67,0 5.08,0.64 7.24,1.95 2.18,1.29 3.91,3.02 5.2,5.19 1.3,2.18 1.95,4.59 1.95,7.24 0,2.64 -0.65,5.05 -1.95,7.23 -1.29,2.18 -3.02,3.93 -5.2,5.22 -2.16,1.3 -4.57,1.95 -7.24,1.95zm88.72 -36.26c-0.31,-2.86 -1.58,-5.08 -3.84,-6.68 -2.26,-1.58 -5.19,-2.38 -8.79,-2.38 -2.52,0 -4.7,0.38 -6.51,1.14 -1.8,0.77 -3.19,1.8 -4.14,3.11 -0.96,1.31 -1.46,2.79 -1.47,4.48 0,1.4 0.32,2.59 0.97,3.62 0.64,1.03 1.52,1.89 2.62,2.61 1.12,0.7 2.35,1.29 3.7,1.78 1.35,0.48 2.72,0.88 4.08,1.2l6.29 1.58c2.52,0.58 4.96,1.38 7.31,2.38 2.33,1.01 4.43,2.27 6.31,3.79 1.86,1.54 3.34,3.38 4.44,5.54 1.09,2.15 1.63,4.68 1.63,7.58 0,3.93 -1,7.37 -3.01,10.34 -2.01,2.98 -4.89,5.29 -8.68,6.97 -3.78,1.67 -8.35,2.5 -13.7,2.5 -5.22,0 -9.73,-0.8 -13.57,-2.42 -3.82,-1.61 -6.8,-3.96 -8.95,-7.06 -2.15,-3.1 -3.31,-6.86 -3.48,-11.31l11.93 0c0.18,2.33 0.91,4.27 2.16,5.82 1.26,1.55 2.92,2.7 4.96,3.47 2.04,0.77 4.31,1.15 6.84,1.15 2.64,0 4.96,-0.4 6.95,-1.2 1.99,-0.8 3.56,-1.9 4.7,-3.33 1.14,-1.43 1.7,-3.11 1.73,-5.04 -0.03,-1.73 -0.54,-3.18 -1.53,-4.33 -1.01,-1.14 -2.41,-2.1 -4.21,-2.87 -1.8,-0.78 -3.9,-1.47 -6.29,-2.09l-7.63 -1.96c-5.51,-1.41 -9.87,-3.56 -13.06,-6.45 -3.19,-2.9 -4.79,-6.74 -4.79,-11.53 0,-3.94 1.07,-7.41 3.22,-10.37 2.15,-2.96 5.06,-5.26 8.78,-6.91 3.7,-1.66 7.9,-2.47 12.58,-2.47 4.76,0 8.92,0.81 12.51,2.47 3.59,1.64 6.4,3.91 8.46,6.83 2.04,2.9 3.1,6.25 3.18,10.02l-11.68 0zm35.51 -18.41l0 66.97 -12.14 0 0 -66.97 12.14 0zm10.24 10.17l0 -10.17 53.42 0 0 10.17 -20.7 0 0 56.8 -12.03 0 0 -56.8 -20.69 0zm63.69 56.8l0 -66.97 43.57 0 0 10.17 -31.43 0 0 18.18 29.16 0 0 10.16 -29.16 0 0 18.28 31.68 0 0 10.17 -43.81 0zm92.35 -48.55c-0.31,-2.86 -1.58,-5.08 -3.84,-6.68 -2.26,-1.58 -5.19,-2.38 -8.79,-2.38 -2.52,0 -4.7,0.38 -6.51,1.14 -1.8,0.77 -3.19,1.8 -4.14,3.11 -0.96,1.31 -1.46,2.79 -1.47,4.48 0,1.4 0.32,2.59 0.97,3.62 0.64,1.03 1.52,1.89 2.62,2.61 1.12,0.7 2.35,1.29 3.7,1.78 1.35,0.48 2.72,0.88 4.08,1.2l6.29 1.58c2.52,0.58 4.96,1.38 7.31,2.38 2.33,1.01 4.43,2.27 6.31,3.79 1.86,1.54 3.34,3.38 4.44,5.54 1.09,2.15 1.63,4.68 1.63,7.58 0,3.93 -1,7.37 -3.01,10.34 -2.01,2.98 -4.89,5.29 -8.68,6.97 -3.78,1.67 -8.35,2.5 -13.7,2.5 -5.22,0 -9.73,-0.8 -13.57,-2.42 -3.82,-1.61 -6.8,-3.96 -8.95,-7.06 -2.15,-3.1 -3.31,-6.86 -3.48,-11.31l11.93 0c0.18,2.33 0.91,4.27 2.16,5.82 1.26,1.55 2.92,2.7 4.96,3.47 2.04,0.77 4.31,1.15 6.84,1.15 2.64,0 4.96,-0.4 6.95,-1.2 1.99,-0.8 3.56,-1.9 4.7,-3.33 1.14,-1.43 1.7,-3.11 1.73,-5.04 -0.03,-1.73 -0.54,-3.18 -1.53,-4.33 -1.01,-1.14 -2.41,-2.1 -4.21,-2.87 -1.8,-0.78 -3.9,-1.47 -6.29,-2.09l-7.63 -1.96c-5.51,-1.41 -9.87,-3.56 -13.06,-6.45 -3.19,-2.9 -4.79,-6.74 -4.79,-11.53 0,-3.94 1.07,-7.41 3.22,-10.37 2.15,-2.96 5.06,-5.26 8.78,-6.91 3.7,-1.66 7.9,-2.47 12.58,-2.47 4.76,0 8.92,0.81 12.51,2.47 3.59,1.64 6.4,3.91 8.46,6.83 2.04,2.9 3.1,6.25 3.18,10.02l-11.68 0zm62.47 36.26c-2.64,0 -5.05,-0.65 -7.23,-1.95 -2.18,-1.29 -3.91,-3.04 -5.2,-5.22 -1.31,-2.18 -1.95,-4.59 -1.95,-7.23 0,-2.65 0.64,-5.06 1.95,-7.24 1.29,-2.17 3.02,-3.9 5.2,-5.19 2.18,-1.3 4.59,-1.95 7.23,-1.95 2.67,0 5.08,0.64 7.24,1.95 2.18,1.29 3.91,3.02 5.2,5.19 1.3,2.18 1.95,4.59 1.95,7.24 0,2.64 -0.65,5.05 -1.95,7.23 -1.29,2.18 -3.02,3.93 -5.2,5.22 -2.16,1.3 -4.57,1.95 -7.24,1.95zm52.32 -54.68l14.85 0 19.88 48.52 0.78 0 19.89 -48.52 14.84 0 0 66.97 -11.63 0 0 -46.01 -0.63 0 -18.51 45.81 -8.7 0 -18.51 -45.9 -0.61 0 0 46.1 -11.65 0 0 -66.97zm92.06 66.97l-12.95 0 23.57 -66.97 14.98 0 23.6 66.97 -12.94 0 -17.9 -53.24 -0.52 0 -17.85 53.24zm0.43 -26.26l35.31 0 0 9.75 -35.31 0 0 -9.75zm57.59 26.26l0 -66.97 25.12 0c5.14,0 9.47,0.91 12.97,2.68 3.5,1.8 6.14,4.3 7.93,7.5 1.81,3.22 2.7,6.97 2.7,11.23 0,4.3 -0.91,8.01 -2.73,11.17 -1.81,3.15 -4.5,5.57 -8.03,7.29 -3.53,1.7 -7.87,2.56 -13.01,2.56l-17.88 0 0 -10.07 16.25 0c3.01,0 5.46,-0.43 7.38,-1.26 1.92,-0.85 3.34,-2.07 4.27,-3.7 0.94,-1.63 1.4,-3.62 1.4,-6 0,-2.38 -0.47,-4.4 -1.41,-6.09 -0.94,-1.69 -2.36,-2.98 -4.28,-3.87 -1.92,-0.88 -4.39,-1.32 -7.43,-1.32l-11.11 0 0 56.83 -12.14 0zm34.61 -30.34l16.57 30.34 -13.54 0 -16.28 -30.34 13.24 0zm25.29 30.34l0 -66.97 12.14 0 0 30.77 0.81 0 26.13 -30.77 14.81 0 -25.9 30.05 26.13 36.92 -14.6 0 -19.96 -28.71 -7.43 8.76 0 19.95 -12.14 0zm62.32 0l0 -66.97 43.57 0 0 10.17 -31.43 0 0 18.18 29.16 0 0 10.16 -29.16 0 0 18.28 31.68 0 0 10.17 -43.81 0zm53.02 -56.8l0 -10.17 53.42 0 0 10.17 -20.7 0 0 56.8 -12.03 0 0 -56.8 -20.69 0zm75.82 -10.17l0 66.97 -12.14 0 0 -66.97 12.14 0zm68.2 0l0 66.97 -10.79 0 -31.55 -45.61 -0.55 0 0 45.61 -12.14 0 0 -66.97 10.87 0 31.52 45.65 0.58 0 0 -45.65 12.06 0zm58.06 21.39c-0.55,-1.76 -1.29,-3.36 -2.24,-4.76 -0.95,-1.41 -2.09,-2.61 -3.41,-3.62 -1.32,-1 -2.82,-1.75 -4.53,-2.27 -1.7,-0.5 -3.54,-0.77 -5.55,-0.77 -3.61,0 -6.8,0.91 -9.62,2.72 -2.81,1.81 -5.02,4.47 -6.61,7.96 -1.6,3.5 -2.41,7.75 -2.41,12.77 0,5.05 0.8,9.34 2.39,12.85 1.6,3.51 3.81,6.18 6.63,7.99 2.84,1.83 6.14,2.73 9.88,2.73 3.39,0 6.35,-0.64 8.84,-1.96 2.5,-1.3 4.42,-3.16 5.77,-5.57 1.35,-2.41 2.03,-5.23 2.03,-8.49l2.75 0.43 -18.17 0 0 -9.48 27.16 0 0 8.04c0,5.74 -1.21,10.7 -3.65,14.89 -2.44,4.17 -5.8,7.4 -10.08,9.65 -4.27,2.26 -9.18,3.39 -14.7,3.39 -6.17,0 -11.59,-1.4 -16.24,-4.17 -4.66,-2.78 -8.29,-6.74 -10.9,-11.86 -2.61,-5.14 -3.9,-11.23 -3.9,-18.31 0,-5.4 0.77,-10.22 2.3,-14.47 1.54,-4.25 3.68,-7.87 6.46,-10.85 2.76,-2.98 6.01,-5.23 9.74,-6.8 3.71,-1.56 7.78,-2.33 12.16,-2.33 3.71,0 7.16,0.54 10.37,1.61 3.19,1.07 6.05,2.61 8.55,4.6 2.49,1.98 4.54,4.33 6.15,7.06 1.63,2.72 2.67,5.73 3.18,9.02l-12.35 0zm70.19 45.58l-22.7 0 0 -66.97 23.16 0c6.65,0 12.37,1.33 17.14,4 4.79,2.67 8.47,6.51 11.05,11.49 2.56,5 3.85,10.97 3.85,17.93 0,6.97 -1.29,12.97 -3.87,17.98 -2.59,5.01 -6.31,8.85 -11.16,11.54 -4.85,2.68 -10.68,4.02 -17.48,4.02zm-10.56 -10.5l9.98 0c4.67,0 8.55,-0.86 11.66,-2.56 3.13,-1.72 5.46,-4.28 7.03,-7.69 1.58,-3.41 2.36,-7.67 2.36,-12.8 0,-5.13 -0.78,-9.38 -2.36,-12.77 -1.57,-3.39 -3.88,-5.92 -6.94,-7.62 -3.07,-1.69 -6.86,-2.53 -11.4,-2.53l-10.33 0 0 45.98zm66.71 -56.47l0 66.97 -12.14 0 0 -66.97 12.14 0zm58.04 21.39c-0.55,-1.76 -1.29,-3.36 -2.24,-4.76 -0.95,-1.41 -2.09,-2.61 -3.41,-3.62 -1.32,-1 -2.82,-1.75 -4.53,-2.27 -1.7,-0.5 -3.54,-0.77 -5.55,-0.77 -3.61,0 -6.8,0.91 -9.62,2.72 -2.81,1.81 -5.02,4.47 -6.61,7.96 -1.6,3.5 -2.41,7.75 -2.41,12.77 0,5.05 0.8,9.34 2.39,12.85 1.6,3.51 3.81,6.18 6.63,7.99 2.84,1.83 6.14,2.73 9.88,2.73 3.39,0 6.35,-0.64 8.84,-1.96 2.5,-1.3 4.42,-3.16 5.77,-5.57 1.35,-2.41 2.03,-5.23 2.03,-8.49l2.75 0.43 -18.17 0 0 -9.48 27.16 0 0 8.04c0,5.74 -1.21,10.7 -3.65,14.89 -2.44,4.17 -5.8,7.4 -10.08,9.65 -4.27,2.26 -9.18,3.39 -14.7,3.39 -6.17,0 -11.59,-1.4 -16.24,-4.17 -4.66,-2.78 -8.29,-6.74 -10.9,-11.86 -2.61,-5.14 -3.9,-11.23 -3.9,-18.31 0,-5.4 0.77,-10.22 2.3,-14.47 1.54,-4.25 3.68,-7.87 6.46,-10.85 2.76,-2.98 6.01,-5.23 9.74,-6.8 3.71,-1.56 7.78,-2.33 12.16,-2.33 3.71,0 7.16,0.54 10.37,1.61 3.19,1.07 6.05,2.61 8.55,4.6 2.49,1.98 4.54,4.33 6.15,7.06 1.63,2.72 2.67,5.73 3.18,9.02l-12.35 0zm36.78 -21.39l0 66.97 -12.14 0 0 -66.97 12.14 0zm10.24 10.17l0 -10.17 53.42 0 0 10.17 -20.7 0 0 56.8 -12.03 0 0 -56.8 -20.69 0zm64.18 56.8l-12.95 0 23.57 -66.97 14.98 0 23.6 66.97 -12.94 0 -17.9 -53.24 -0.52 0 -17.85 53.24zm0.43 -26.26l35.31 0 0 9.75 -35.31 0 0 -9.75zm57.59 26.26l0 -66.97 12.14 0 0 56.8 29.5 0 0 10.17 -41.63 0zm91.22 -12.29c-2.64,0 -5.05,-0.65 -7.23,-1.95 -2.18,-1.29 -3.91,-3.04 -5.2,-5.22 -1.31,-2.18 -1.95,-4.59 -1.95,-7.23 0,-2.65 0.64,-5.06 1.95,-7.24 1.29,-2.17 3.02,-3.9 5.2,-5.19 2.18,-1.3 4.59,-1.95 7.23,-1.95 2.67,0 5.08,0.64 7.24,1.95 2.18,1.29 3.91,3.02 5.2,5.19 1.3,2.18 1.95,4.59 1.95,7.24 0,2.64 -0.65,5.05 -1.95,7.23 -1.29,2.18 -3.02,3.93 -5.2,5.22 -2.16,1.3 -4.57,1.95 -7.24,1.95zm52.32 12.29l0 -66.97 25.12 0c5.14,0 9.47,0.96 12.97,2.88 3.5,1.92 6.14,4.54 7.93,7.89 1.81,3.34 2.7,7.15 2.7,11.4 0,4.3 -0.91,8.1 -2.72,11.45 -1.81,3.33 -4.48,5.95 -8.01,7.86 -3.53,1.91 -7.87,2.87 -13.04,2.87l-16.64 0 0 -9.97 15.01 0c3.01,0 5.46,-0.52 7.38,-1.58 1.92,-1.04 3.34,-2.49 4.27,-4.31 0.94,-1.83 1.4,-3.93 1.4,-6.31 0,-2.38 -0.46,-4.47 -1.4,-6.27 -0.92,-1.81 -2.35,-3.22 -4.28,-4.24 -1.93,-1.01 -4.4,-1.52 -7.44,-1.52l-11.11 0 0 56.83 -12.14 0zm101.47 -66.97l12.14 0 0 43.75c0,4.81 -1.14,9.03 -3.39,12.66 -2.26,3.64 -5.42,6.47 -9.5,8.52 -4.08,2.04 -8.84,3.05 -14.29,3.05 -5.48,0 -10.25,-1.01 -14.32,-3.05 -4.08,-2.04 -7.24,-4.88 -9.48,-8.52 -2.24,-3.64 -3.38,-7.86 -3.38,-12.66l0 -43.75 12.14 0 0 42.74c0,2.79 0.62,5.28 1.84,7.46 1.24,2.18 2.98,3.88 5.22,5.11 2.24,1.24 4.91,1.86 7.98,1.86 3.07,0 5.74,-0.61 8,-1.86 2.25,-1.23 3.99,-2.93 5.22,-5.11 1.21,-2.18 1.83,-4.66 1.83,-7.46l0 -42.74zm25.33 66.97l0 -66.97 25.64 0c4.83,0 8.87,0.77 12.08,2.27 3.22,1.52 5.63,3.59 7.23,6.2 1.6,2.63 2.41,5.59 2.41,8.9 0,2.72 -0.52,5.05 -1.58,6.98 -1.04,1.92 -2.44,3.48 -4.22,4.68 -1.76,1.2 -3.73,2.07 -5.91,2.59l0 0.65c2.38,0.14 4.65,0.86 6.84,2.18 2.19,1.32 3.99,3.18 5.39,5.57 1.4,2.41 2.09,5.29 2.09,8.7 0,3.47 -0.84,6.58 -2.52,9.33 -1.67,2.76 -4.21,4.94 -7.58,6.52 -3.38,1.6 -7.63,2.4 -12.75,2.4l-27.12 0zm12.14 -10.13l13.05 0c4.4,0 7.58,-0.86 9.53,-2.55 1.95,-1.69 2.93,-3.85 2.93,-6.52 0,-1.98 -0.49,-3.77 -1.47,-5.37 -0.98,-1.61 -2.38,-2.87 -4.19,-3.79 -1.81,-0.94 -3.96,-1.4 -6.48,-1.4l-13.37 0 0 19.63zm0 -28.36l12 0c2.09,0 3.97,-0.38 5.65,-1.15 1.69,-0.78 3.01,-1.89 3.97,-3.32 0.98,-1.43 1.46,-3.11 1.46,-5.08 0,-2.6 -0.91,-4.73 -2.73,-6.42 -1.81,-1.67 -4.51,-2.52 -8.09,-2.52l-12.26 0 0 18.48zm48.39 38.49l0 -66.97 12.14 0 0 56.8 29.5 0 0 10.17 -41.63 0zm64.25 -66.97l0 66.97 -12.14 0 0 -66.97 12.14 0zm70.5 22.6l-12.23 0c-0.35,-2.01 -1,-3.79 -1.93,-5.36 -0.94,-1.55 -2.1,-2.88 -3.5,-3.97 -1.4,-1.09 -2.98,-1.9 -4.76,-2.46 -1.78,-0.57 -3.68,-0.84 -5.74,-0.84 -3.64,0 -6.86,0.91 -9.68,2.73 -2.81,1.83 -5.01,4.48 -6.6,7.98 -1.6,3.5 -2.39,7.76 -2.39,12.8 0,5.12 0.81,9.44 2.41,12.94 1.6,3.5 3.81,6.14 6.6,7.9 2.81,1.78 6.01,2.67 9.64,2.67 2.01,0 3.88,-0.26 5.63,-0.8 1.77,-0.54 3.35,-1.32 4.74,-2.38 1.41,-1.04 2.59,-2.33 3.58,-3.85 0.97,-1.52 1.63,-3.27 2.01,-5.23l12.23 0.06c-0.46,3.19 -1.46,6.17 -2.96,8.96 -1.52,2.79 -3.5,5.25 -5.94,7.38 -2.44,2.12 -5.29,3.78 -8.56,4.97 -3.27,1.18 -6.91,1.78 -10.9,1.78 -5.88,0 -11.14,-1.37 -15.76,-4.1 -4.62,-2.72 -8.26,-6.66 -10.91,-11.8 -2.67,-5.14 -3.99,-11.31 -3.99,-18.51 0,-7.21 1.33,-13.38 4.02,-18.52 2.67,-5.13 6.32,-9.05 10.94,-11.78 4.64,-2.73 9.85,-4.08 15.7,-4.08 3.73,0 7.2,0.52 10.4,1.56 3.21,1.04 6.06,2.58 8.56,4.59 2.5,2.03 4.57,4.48 6.2,7.4 1.63,2.91 2.69,6.23 3.19,9.96zm23.28 -22.6l0 66.97 -12.14 0 0 -66.97 12.14 0zm35.87 66.97l-22.7 0 0 -66.97 23.16 0c6.65,0 12.37,1.33 17.14,4 4.79,2.67 8.47,6.51 11.05,11.49 2.56,5 3.85,10.97 3.85,17.93 0,6.97 -1.29,12.97 -3.87,17.98 -2.59,5.01 -6.31,8.85 -11.16,11.54 -4.85,2.68 -10.68,4.02 -17.48,4.02zm-10.56 -10.5l9.98 0c4.67,0 8.55,-0.86 11.66,-2.56 3.13,-1.72 5.46,-4.28 7.03,-7.69 1.58,-3.41 2.36,-7.67 2.36,-12.8 0,-5.13 -0.78,-9.38 -2.36,-12.77 -1.57,-3.39 -3.88,-5.92 -6.94,-7.62 -3.07,-1.69 -6.86,-2.53 -11.4,-2.53l-10.33 0 0 45.98zm59.61 10.5l-12.95 0 23.57 -66.97 14.98 0 23.6 66.97 -12.94 0 -17.9 -53.24 -0.52 0 -17.85 53.24zm0.43 -26.26l35.31 0 0 9.75 -35.31 0 0 -9.75zm80.29 26.26l-22.7 0 0 -66.97 23.16 0c6.65,0 12.37,1.33 17.14,4 4.79,2.67 8.47,6.51 11.05,11.49 2.56,5 3.85,10.97 3.85,17.93 0,6.97 -1.29,12.97 -3.87,17.98 -2.59,5.01 -6.31,8.85 -11.16,11.54 -4.85,2.68 -10.68,4.02 -17.48,4.02zm-10.56 -10.5l9.98 0c4.67,0 8.55,-0.86 11.66,-2.56 3.13,-1.72 5.46,-4.28 7.03,-7.69 1.58,-3.41 2.36,-7.67 2.36,-12.8 0,-5.13 -0.78,-9.38 -2.36,-12.77 -1.57,-3.39 -3.88,-5.92 -6.94,-7.62 -3.07,-1.69 -6.86,-2.53 -11.4,-2.53l-10.33 0 0 45.98zm54.57 10.5l0 -66.97 43.57 0 0 10.17 -31.43 0 0 18.18 29.16 0 0 10.16 -29.16 0 0 18.28 31.68 0 0 10.17 -43.81 0z"/>
 </g>
</svg>
